<?xml version="1.0" encoding="utf-8"?>
<!-- Generator: Adobe Illustrator 21.1.0, SVG Export Plug-In . SVG Version: 6.00 Build 0)  -->
<svg version="1.1" id="Layer_1" xmlns="http://www.w3.org/2000/svg" xmlns:xlink="http://www.w3.org/1999/xlink" x="0px" y="0px"
	 viewBox="0 0 160 44.8" style="enable-background:new 0 0 160 44.8;" xml:space="preserve">
<style type="text/css">
	.st0{fill:#823589;}
	.st1{fill:url(#SVGID_1_);}
	.st2{fill:url(#SVGID_2_);}
	.st3{fill:#4C205B;}
	.st4{fill:#FFFFFF;}
	.st5{fill:#A154A1;}
	.st6{fill:#6D6E71;}
</style>
<title>Updated BYJU&amp;apos;S_The Learning app Logo</title>
<g>
	<path class="st0" d="M4.2,0h35c2.3,0,4.2,1.9,4.2,4.2v35c0,2.3-1.9,4.2-4.2,4.2h-35c-2.3,0-4.2-1.9-4.2-4.2v-35C0,1.8,1.9,0,4.2,0z
		"/>
	
		<radialGradient id="SVGID_1_" cx="448.7941" cy="247.4989" r="26.7433" gradientTransform="matrix(6.123234e-17 1 -1.28 7.837739e-17 338.6985 -463.3683)" gradientUnits="userSpaceOnUse">
		<stop  offset="0.82" style="stop-color:#A154A1"/>
		<stop  offset="0.89" style="stop-color:#823589"/>
	</radialGradient>
	<path class="st1" d="M39.2,0c2.3,0,4.2,1.9,4.2,4.2v14.2c0,1.4-1.1,2.5-2.5,2.5H2.5c-1.4,0-2.5-1.1-2.5-2.5V4.2C0,1.8,1.9,0,4.2,0
		H39.2z"/>
	
		<radialGradient id="SVGID_2_" cx="11361.9697" cy="-701.5435" r="26.7556" gradientTransform="matrix(6.123234e-17 -1 1.28 7.837739e-17 919.6716 11419.8623)" gradientUnits="userSpaceOnUse">
		<stop  offset="0.82" style="stop-color:#5F286E"/>
		<stop  offset="0.89" style="stop-color:#823589"/>
	</radialGradient>
	<path class="st2" d="M4.2,43.4c-2.3,0-4.2-1.9-4.2-4.2V24.9c0-1.4,1.1-2.5,2.5-2.5h38.4c1.4,0,2.5,1.1,2.5,2.5l0,0v14.2
		c0,2.3-1.9,4.2-4.2,4.2H4.2z"/>
	<path class="st0" d="M4.1,1.4h35.2c1.5,0,2.7,1.2,2.7,2.7v35.2c0,1.5-1.2,2.7-2.7,2.7H4.1c-1.5,0-2.7-1.2-2.7-2.7V4.1
		C1.4,2.6,2.6,1.4,4.1,1.4z"/>
	<path class="st3" d="M28.1,32.9L28.1,32.9l-8.4,2.4c-0.7,0.2-1.5-0.2-1.7-0.9l0,0l-6.4-22.1c-0.2-0.7,0.2-1.5,0.9-1.7l0,0l8.7-2.5
		c2-0.6,4.2,0,5.6,1.6c2.6,2.9,2,6.7-0.4,8.7c4.1,0.3,7.2,3.8,6.9,7.8C33.2,29.3,31.1,32,28.1,32.9L28.1,32.9z"/>
	<path class="st4" d="M29.3,17.3c1.3-2.5,1.2-5.7-0.9-8.4c-1.6-2.1-5.1-3.2-7.6-2.4l-9,2.6C10.4,9.5,9.6,11,10,12.4l6.5,22.7
		c0.4,1.4,1.9,2.3,3.3,1.8l9-2.6c3-0.9,5.8-4.1,6.2-7.2C35.6,22.4,32.9,18.7,29.3,17.3z M28.1,32.9L28.1,32.9l-8.4,2.4
		c-0.7,0.2-1.5-0.2-1.7-0.9l-6.4-22.1c-0.2-0.7,0.2-1.5,0.9-1.7l8.7-2.5c2-0.6,4.2,0,5.6,1.6c2.6,2.9,2,6.7-0.4,8.7
		c4.1,0.3,7.2,3.8,6.9,7.8C33.2,29.3,31.1,32,28.1,32.9L28.1,32.9z"/>
	<path class="st0" d="M30.7,27c0-3.7-3-6.8-6.8-6.8c2.3-2,2.9-5.5,0.4-8.3c-1.4-1.6-3.5-2.2-5.5-1.6l-7.3,2.1L18,34.4
		c0.2,0.7,0.9,1.1,1.7,0.9l6-1.7l0.1,0C28.7,32.7,30.7,30,30.7,27z"/>
	<path class="st0" d="M121.8,27.8c-6.2,0-9.8-3.7-9.8-11.1V4.1c0-1.8,1-2.9,2.5-2.9c1.5,0,2.5,1.1,2.5,2.9v12.2c0,5,1.6,6.6,4.7,6.6
		s4.7-1.6,4.7-6.6V4.1c0-1.8,1.1-2.9,2.5-2.9c1.5,0,2.5,1.1,2.5,2.9v12.6C131.6,24.1,128,27.8,121.8,27.8z M65,13.7
		c2.1-1.4,3.2-3.3,3.2-5.5c0-4.4-3.1-7.5-9.2-7.5h-7c-1.5,0-2.5,1-2.5,2.5v22.1c0,1.5,1,2.5,2.5,2.5l7,0.1c8,0.1,10.6-3.4,10.6-7.6
		c0-3-1.7-5.4-4.6-6.6C65,13.9,65,13.8,65,13.7C65,13.8,65,13.8,65,13.7z M81.9,12.1l-5.7-9.4c-0.6-0.9-1.1-1.5-2.3-1.5
		c-1.4,0-2.6,1-2.6,2.3c0,0.7,0.2,1.5,0.7,2.1l7.3,11.7V25c0,1.8,1.1,2.9,2.5,2.9c1.5,0,2.6-1.1,2.6-2.9v-7.8l7.3-11.7
		c0.4-0.6,0.7-1.3,0.7-2.1c0-1.3-1.1-2.3-2.6-2.3c-1.1,0-1.7,0.6-2.3,1.5L81.9,12.1z M137.1,10.5c0.6,0,1.3-0.3,1.7-1.2
		c0.7-1.4,1.3-4.2,1.3-5.4c0-1.7-0.8-2.7-2.6-2.7c-1.9,0.1-2.6,1.3-2.6,3.5v2C134.9,9.1,135.6,10.5,137.1,10.5L137.1,10.5z
		 M90.1,20.9c0,2.4,2.1,7,8,7c5.8,0,8.8-3.5,8.8-9.7v-14c0-1.8-1.1-2.9-2.5-2.9c-1.6,0-2.5,1.1-2.5,2.9v14.1c0,3.2-1.1,4.7-3.6,4.7
		c-4.3,0.1-2.4-4.4-5.4-4.7C91.5,18.2,90.1,19.1,90.1,20.9z M60.6,11.4c-1.7,0.3-2.7,1-2.7,2.6c0,1.6,1,2.5,2.7,2.7
		c2.9,0.3,3.8,1.3,3.8,3.5c0,2-1.7,3.1-4.8,3.1h-5.2V5.5H60c2.1,0,3.2,1.3,3.2,3.2C63.2,10.3,62.2,11.1,60.6,11.4z M146.5,21.1
		c-0.6-0.7-1.4-1.5-2.4-1.5c-1.1,0-2.4,0.7-2.4,2.5c0,0.8,0.4,1.6,0.9,2.3c1.7,2.1,4.6,3.8,8.6,3.8c4.7,0,8.7-2.7,8.7-7.5
		c0-9.3-12.4-8.4-12.4-12.6c0-1.6,1.1-2.5,2.9-2.5c1.4,0,2.5,0.3,3.3,1c0.9,0.7,1.6,2.1,3.1,2.1c1.3,0,2.4-0.9,2.4-2.1
		c0-1.8-1.8-3.5-3.4-4.5c-1.3-0.8-3.1-1.4-5.5-1.4c-4,0.1-7.9,2.3-7.9,7.5c0,8.4,12.4,6.9,12.4,12.2c0,1.9-1.5,2.9-3.7,2.9
		C149.3,23.3,147.9,22.4,146.5,21.1L146.5,21.1z"/>
	<path class="st5" d="M114.6,1.7c1.5,0,2.5,1.1,2.5,2.9V4.1c0-1.8-1.1-2.9-2.5-2.9c-1.5,0-2.5,1.1-2.5,2.9v0.5
		C112,2.8,113.1,1.7,114.6,1.7z"/>
	<path class="st5" d="M117.1,16.8c0,5,1.6,6.6,4.7,6.6s4.7-1.6,4.7-6.6v-0.5c0,5-1.6,6.6-4.7,6.6s-4.7-1.6-4.7-6.6V16.8z"/>
	<path class="st5" d="M147.6,8.4c0,0.1,0,0.2,0,0.3c0,4.1,12.1,3.2,12.4,12.3c0-0.1,0-0.1,0-0.2C160,11.6,148,12.3,147.6,8.4z"/>
	<path class="st5" d="M74,1.7c1.1,0,1.7,0.6,2.3,1.5l5.7,9.4l5.7-9.4c0.6-0.9,1.1-1.5,2.3-1.5c1.4,0,2.4,0.9,2.6,2.1
		c0-0.1,0-0.2,0-0.3c0-1.3-1.1-2.3-2.6-2.3c-1.1,0-1.7,0.6-2.3,1.5l-5.7,9.4l-5.7-9.4c-0.6-0.9-1.1-1.5-2.3-1.5
		c-1.4,0-2.6,1-2.6,2.3c0,0.1,0,0.2,0,0.3C71.5,2.6,72.6,1.7,74,1.7z"/>
	<path class="st5" d="M144.1,20.1c0.9,0,1.7,0.7,2.3,1.5c1.4,1.3,2.8,2.2,4.7,2.2c2.2,0,3.7-0.9,3.7-2.9c0-0.1,0-0.2,0-0.3
		c-0.1,1.7-1.6,2.6-3.7,2.6c-2,0-3.4-0.9-4.7-2.2c-0.6-0.7-1.4-1.5-2.3-1.5c-1.1,0-2.4,0.7-2.4,2.5c0,0.1,0,0.1,0,0.2
		C141.9,20.7,143.1,20.1,144.1,20.1z"/>
	<path class="st5" d="M150.5,1.3c2.4,0,4.1,0.6,5.5,1.4c1.5,0.9,3.2,2.5,3.4,4.2c0-0.1,0-0.2,0-0.2c0-1.8-1.8-3.5-3.4-4.5
		c-1.3-0.8-3.1-1.4-5.5-1.4c-4,0.1-8,2.3-8,7.5c0,0.1,0,0.2,0,0.2C142.7,3.5,146.5,1.4,150.5,1.3z"/>
	<path class="st5" d="M90.1,20.9c0,0.1,0,0.2,0,0.3c0.1-1.7,1.4-2.5,2.7-2.4c3,0.3,1.2,4.7,5.4,4.7c2.5,0,3.6-1.5,3.6-4.7v-0.5
		c0,3.2-1.1,4.7-3.6,4.7c-4.3,0.1-2.4-4.4-5.4-4.7C91.5,18.2,90.1,19.1,90.1,20.9z"/>
	<path class="st5" d="M129,1.2c-1.5,0-2.5,1.1-2.5,2.9v0.5c0-1.8,1.1-2.9,2.5-2.9c1.5,0,2.5,1.1,2.5,2.9V4.1
		C131.6,2.3,130.6,1.2,129,1.2z"/>
	<path class="st5" d="M137.6,1.1c-1.9,0.1-2.6,1.3-2.6,3.5v0.5c0-2.2,0.8-3.4,2.6-3.5c1.7,0,2.5,1,2.6,2.5c0-0.1,0-0.2,0-0.2
		C140.2,2.2,139.4,1.1,137.6,1.1z"/>
	<path class="st5" d="M104.4,1.2c-1.6,0-2.5,1.1-2.5,2.9v0.5c0-1.8,0.9-2.9,2.5-2.9c1.5,0,2.5,1.1,2.5,2.9V4.1
		C106.9,2.3,105.9,1.2,104.4,1.2z"/>
	<path class="st5" d="M51.9,1.3h7c6,0,9.1,3,9.2,7.2c0-0.1,0-0.1,0-0.2c0-4.4-3.1-7.5-9.2-7.5h-7c-1.5,0-2.5,1-2.5,2.5v0.5
		C49.4,2.3,50.4,1.3,51.9,1.3z"/>
	<path class="st5" d="M60.6,11.4c-1.7,0.3-2.7,1-2.7,2.6c0,0.1,0,0.2,0,0.3c0.1-1.4,1.1-2,2.7-2.3c1.6-0.3,2.6-1.1,2.6-2.8
		c0-0.1,0-0.2,0-0.3C63.1,10.3,62.1,11.1,60.6,11.4z"/>
	<path class="st5" d="M59.6,23.7c3.2,0,4.8-1.1,4.8-3.1c0-0.1,0-0.2,0-0.3c-0.1,1.9-1.7,2.9-4.8,2.9h-5.2v0.5L59.6,23.7z"/>
	<path class="st5" d="M65,13.9C65,13.9,65,13.8,65,13.9C65,13.8,65,13.8,65,13.9L65,13.9L64.8,14c-0.1,0-0.1,0.1,0,0.2
		c0,0,0,0,0.1,0l0.3,0.1c2.8,1.1,4.5,3.4,4.6,6.4c0-0.1,0-0.2,0-0.3c0-0.8-0.1-1.5-0.3-2.3C68.6,16.2,67.1,14.7,65,13.9z"/>
	<path class="st6" d="M49.2,33.3c0-0.2,0.1-0.4,0.2-0.5c0.1-0.1,0.3-0.2,0.5-0.2h6c0.2,0,0.4,0.1,0.5,0.2c0.1,0.1,0.2,0.3,0.2,0.5
		c0,0.2-0.1,0.4-0.2,0.5c-0.1,0.1-0.3,0.2-0.5,0.2h-2.2v7.2c0,0.2-0.1,0.4-0.3,0.6c-0.2,0.2-0.4,0.3-0.6,0.3c-0.2,0-0.4-0.1-0.6-0.3
		c-0.2-0.2-0.2-0.4-0.2-0.6v-7.2H50c-0.2,0-0.4-0.1-0.5-0.2C49.3,33.7,49.2,33.5,49.2,33.3z"/>
	<path class="st6" d="M58,41.3v-8c0-0.2,0.1-0.4,0.2-0.5c0.1-0.1,0.3-0.2,0.6-0.2c0.4,0,0.7,0.3,0.7,0.7v2.9c0.3-0.3,0.6-0.6,1-0.8
		c0.4-0.2,0.9-0.3,1.4-0.3c0.7,0,1.3,0.2,1.6,0.6c0.4,0.4,0.6,0.9,0.6,1.6v4.1c0,0.2-0.1,0.4-0.2,0.5c-0.1,0.1-0.3,0.2-0.5,0.2
		c-0.4,0-0.7-0.3-0.7-0.7l0,0v-3.6c0-0.5-0.1-0.9-0.3-1.1c-0.3-0.2-0.7-0.3-1-0.3c-0.3,0-0.7,0.1-1,0.3c-0.3,0.2-0.5,0.4-0.7,0.6v4
		c0,0.2-0.1,0.4-0.2,0.5c-0.1,0.1-0.3,0.2-0.5,0.2C58.3,42.1,58,41.7,58,41.3C58,41.3,58,41.3,58,41.3L58,41.3z"/>
	<path class="st6" d="M65.6,38.6c0-0.6,0.1-1.2,0.4-1.8c0.3-0.5,0.7-1,1.2-1.3c0.5-0.3,1.1-0.5,1.8-0.5c0.7,0,1.4,0.2,2,0.6
		c0.6,0.4,1,1.1,1.1,1.8c0.1,0.3,0.2,0.6,0.2,0.9c0,0.2-0.1,0.4-0.2,0.5C72,39,71.8,39,71.6,39h-4.5c0,0.5,0.3,0.9,0.6,1.2
		c0.4,0.3,0.9,0.5,1.5,0.5c0.5,0,1.1-0.1,1.5-0.3c0.1,0,0.2-0.1,0.3-0.1c0.2,0,0.3,0.1,0.4,0.2c0.1,0.1,0.2,0.3,0.2,0.4
		c0,0.2-0.1,0.4-0.3,0.5c-0.2,0.2-0.5,0.3-0.7,0.3c-0.3,0.1-0.6,0.2-0.9,0.2c-0.3,0-0.5,0.1-0.8,0.1c-1.9,0.1-3.5-1.4-3.5-3.3
		C65.6,38.7,65.6,38.7,65.6,38.6L65.6,38.6z M67.1,38h3.8c0-0.2,0-0.4-0.1-0.6c-0.1-0.2-0.2-0.4-0.3-0.5c-0.2-0.2-0.4-0.3-0.6-0.4
		c-0.3-0.1-0.6-0.2-0.9-0.2c-0.5,0-1,0.2-1.3,0.5C67.4,37.2,67.1,37.6,67.1,38L67.1,38z"/>
	<path class="st6" d="M77.4,41v-7.6c0-0.2,0.1-0.4,0.3-0.6c0.2-0.2,0.4-0.2,0.6-0.2s0.4,0.1,0.6,0.3c0.2,0.1,0.3,0.3,0.3,0.6v7.2
		h3.5c0.2,0,0.4,0.1,0.5,0.2c0.1,0.1,0.2,0.3,0.2,0.5c0,0.2-0.1,0.4-0.2,0.6c-0.1,0.1-0.3,0.2-0.5,0.2h-4.1
		C77.9,42,77.4,41.5,77.4,41L77.4,41L77.4,41z"/>
	<path class="st6" d="M84,38.6c0-0.6,0.1-1.2,0.4-1.8c0.3-0.5,0.7-1,1.2-1.3c0.5-0.3,1.1-0.5,1.8-0.5c0.7,0,1.4,0.2,2,0.6
		c0.6,0.4,1,1.1,1.1,1.8c0.1,0.3,0.2,0.6,0.2,0.9c0,0.2-0.1,0.4-0.2,0.5C90.5,39,90.3,39,90.1,39h-4.5c0,0.5,0.3,0.9,0.6,1.2
		c0.4,0.3,0.9,0.5,1.5,0.5c0.5,0,1.1-0.1,1.5-0.3c0.1,0,0.2-0.1,0.3-0.1c0.2,0,0.3,0.1,0.4,0.2c0.1,0.1,0.2,0.3,0.2,0.4
		c0,0.2-0.1,0.4-0.3,0.5c-0.2,0.2-0.5,0.3-0.7,0.3C89,41.9,88.7,42,88.4,42c-0.3,0-0.5,0.1-0.8,0.1c-1.9,0.1-3.5-1.4-3.5-3.3
		C84,38.8,84,38.7,84,38.6L84,38.6z M85.6,38h3.8c0-0.2,0-0.4-0.1-0.6c-0.1-0.2-0.2-0.4-0.3-0.5c-0.2-0.2-0.4-0.3-0.6-0.4
		c-0.3-0.1-0.6-0.2-0.9-0.2c-0.5,0-1,0.2-1.3,0.5C85.8,37.2,85.6,37.6,85.6,38L85.6,38z"/>
	<path class="st6" d="M91.8,39.9c0-0.3,0.1-0.7,0.2-1c0.1-0.3,0.3-0.5,0.6-0.7c0.2-0.2,0.5-0.3,0.8-0.4s0.6-0.1,0.9-0.1
		c0.4,0,0.9,0.1,1.2,0.2c0.4,0.1,0.7,0.4,0.9,0.6v-1c0-0.3-0.2-0.7-0.4-0.9c-0.3-0.2-0.7-0.3-1.1-0.3c-0.6,0-1.1,0.1-1.6,0.4
		c-0.1,0-0.2,0.1-0.3,0.1c-0.2,0-0.3-0.1-0.4-0.2c-0.1-0.1-0.2-0.3-0.2-0.4c0-0.1,0-0.2,0.1-0.3c0.3-0.3,0.7-0.6,1.1-0.7
		c0.5-0.2,1-0.3,1.5-0.3c0.4,0,0.7,0,1.1,0.1c0.3,0.1,0.6,0.2,0.9,0.4c0.3,0.2,0.5,0.5,0.6,0.8c0.2,0.4,0.2,0.8,0.2,1.1v3.8
		c0,0.2-0.1,0.4-0.2,0.5c-0.1,0.1-0.3,0.2-0.5,0.2H97c-0.2,0-0.3-0.1-0.4-0.2c-0.2-0.1-0.3-0.3-0.2-0.5v-0.1
		c-0.3,0.3-0.6,0.5-0.9,0.7c-0.4,0.2-0.8,0.2-1.2,0.2c-0.3,0-0.6,0-0.9-0.1c-0.3-0.1-0.5-0.2-0.8-0.4c-0.2-0.2-0.4-0.4-0.6-0.7
		C91.9,40.6,91.8,40.2,91.8,39.9z M93.4,39.9c0,0.3,0.1,0.6,0.4,0.9c0.3,0.2,0.6,0.3,1,0.3c0.3,0,0.6,0,0.9-0.2
		c0.3-0.1,0.5-0.3,0.7-0.5v-1c-0.2-0.2-0.4-0.4-0.7-0.5c-0.3-0.1-0.6-0.2-0.9-0.2c-0.4,0-0.7,0.1-1,0.3
		C93.5,39.2,93.4,39.6,93.4,39.9z"/>
	<path class="st6" d="M99.8,41.3v-5.5c0-0.2,0.1-0.4,0.2-0.5c0.1-0.1,0.3-0.2,0.6-0.2c0.2,0,0.4,0.1,0.5,0.2
		c0.1,0.1,0.2,0.3,0.2,0.5v0.4c0.5-0.7,1.1-1.1,1.6-1.1c0.2,0,0.3,0.1,0.5,0.2c0.1,0.1,0.2,0.3,0.2,0.5c0,0.2-0.1,0.4-0.2,0.6
		c-0.1,0.1-0.3,0.2-0.5,0.3c-0.6,0-1.2,0.3-1.5,0.8v3.9c0,0.2-0.1,0.4-0.2,0.5c-0.1,0.1-0.3,0.2-0.5,0.2h0c-0.2,0-0.4-0.1-0.5-0.2
		C99.9,41.7,99.8,41.5,99.8,41.3z"/>
	<path class="st6" d="M104.7,41.3v-5.5c0-0.2,0.1-0.4,0.2-0.5c0.1-0.1,0.3-0.2,0.6-0.2c0.4,0,0.7,0.3,0.7,0.7v0.3
		c0.3-0.3,0.6-0.6,1-0.8c0.4-0.2,0.9-0.3,1.4-0.3c0.7,0,1.3,0.2,1.6,0.6c0.4,0.4,0.6,0.9,0.6,1.6v4.1c0,0.2-0.1,0.4-0.2,0.5
		c-0.1,0.1-0.3,0.2-0.5,0.2c-0.4,0-0.7-0.3-0.7-0.7l0,0v-3.6c0-0.5-0.1-0.9-0.3-1.1c-0.3-0.2-0.6-0.3-1-0.3c-0.3,0-0.7,0.1-1,0.3
		c-0.3,0.2-0.5,0.4-0.7,0.6v4c0,0.2-0.1,0.4-0.2,0.5c-0.1,0.1-0.3,0.2-0.5,0.2C105,42.1,104.7,41.7,104.7,41.3
		C104.7,41.3,104.7,41.3,104.7,41.3L104.7,41.3z"/>
	<path class="st6" d="M112.5,33.4c0-0.3,0.1-0.5,0.3-0.6c0.4-0.3,0.9-0.3,1.3,0c0.2,0.2,0.3,0.4,0.3,0.6c0,0.5-0.4,0.9-0.9,0.9
		S112.5,33.9,112.5,33.4L112.5,33.4z M112.6,41.3v-5.5c0-0.2,0.1-0.4,0.2-0.5c0.1-0.1,0.3-0.2,0.6-0.2c0.4,0,0.7,0.3,0.7,0.7v5.5
		c0,0.2-0.1,0.4-0.2,0.5c-0.1,0.1-0.3,0.2-0.5,0.2C113,42.1,112.6,41.7,112.6,41.3C112.6,41.3,112.6,41.3,112.6,41.3L112.6,41.3z"/>
	<path class="st6" d="M116,41.3v-5.5c0-0.2,0.1-0.4,0.2-0.5c0.1-0.1,0.3-0.2,0.6-0.2c0.4,0,0.7,0.3,0.7,0.7v0.3
		c0.3-0.3,0.6-0.6,1-0.8c0.4-0.2,0.9-0.3,1.4-0.3c0.7,0,1.3,0.2,1.6,0.6c0.4,0.4,0.6,0.9,0.6,1.6v4.1c0,0.2-0.1,0.4-0.2,0.5
		c-0.1,0.1-0.3,0.2-0.5,0.2c-0.4,0-0.7-0.3-0.7-0.7l0,0v-3.6c0-0.5-0.1-0.9-0.3-1.1c-0.3-0.2-0.6-0.3-1-0.3c-0.3,0-0.7,0.1-1,0.3
		c-0.3,0.2-0.5,0.4-0.7,0.6v4c0,0.2-0.1,0.4-0.2,0.5c-0.1,0.1-0.3,0.2-0.5,0.2C116.4,42.1,116,41.7,116,41.3
		C116,41.3,116,41.3,116,41.3L116,41.3z"/>
	<path class="st6" d="M123.6,38.5c0-1.1,0.3-1.9,0.8-2.6c0.6-0.6,1.3-0.9,2.2-0.9c0.4,0,0.8,0.1,1.2,0.3c0.4,0.2,0.7,0.5,1,0.8v-0.3
		c0-0.2,0.1-0.4,0.2-0.5c0.1-0.1,0.3-0.2,0.6-0.2c0.2,0,0.4,0.1,0.5,0.2c0.1,0.1,0.2,0.3,0.2,0.5v5.7c0,0.4-0.1,0.9-0.2,1.3
		c-0.1,0.3-0.3,0.6-0.5,0.9c-0.2,0.2-0.5,0.4-0.8,0.6c-0.3,0.1-0.6,0.3-0.9,0.3c-0.8,0.1-1.7,0.1-2.5-0.1c-0.4-0.1-0.8-0.3-1.1-0.6
		c-0.1-0.1-0.1-0.3-0.1-0.4c0-0.2,0.1-0.3,0.2-0.5s0.3-0.2,0.5-0.2c0.1,0,0.2,0,0.3,0.1c0.5,0.3,1.1,0.4,1.7,0.4
		c0.3,0,0.5,0,0.7-0.1c0.2-0.1,0.4-0.2,0.6-0.3c0.2-0.1,0.4-0.3,0.5-0.6c0.1-0.3,0.2-0.6,0.2-0.9v-0.8c-0.3,0.3-0.6,0.6-1,0.8
		c-0.4,0.2-0.8,0.3-1.2,0.3c-0.8,0-1.6-0.3-2.2-0.9C123.9,40.4,123.6,39.6,123.6,38.5z M125.6,36.9c-0.7,0.9-0.7,2.2,0,3.1
		c0.3,0.4,0.9,0.6,1.4,0.6c0.3,0,0.7-0.1,1-0.3c0.3-0.1,0.6-0.4,0.7-0.6v-2.5c-0.2-0.3-0.4-0.5-0.7-0.6c-0.3-0.2-0.6-0.3-1-0.3
		C126.5,36.3,126,36.5,125.6,36.9L125.6,36.9z"/>
	<path class="st6" d="M135.2,41.1c0-0.1,0-0.2,0.1-0.3l2.9-7.4c0.1-0.3,0.3-0.5,0.5-0.6c0.2-0.2,0.5-0.2,0.8-0.2h0.1
		c0.3,0,0.6,0.1,0.8,0.2c0.3,0.2,0.5,0.4,0.6,0.7l2.9,7.4c0,0.1,0,0.2,0,0.3c0,0.2-0.1,0.5-0.3,0.6c-0.2,0.2-0.4,0.3-0.6,0.3
		c-0.2,0-0.3,0-0.5-0.2c-0.1-0.1-0.3-0.2-0.3-0.4l-0.5-1.3h-4.3l-0.5,1.3c-0.1,0.2-0.2,0.3-0.3,0.4c-0.1,0.1-0.3,0.2-0.5,0.2
		c-0.3,0-0.5-0.1-0.6-0.3C135.3,41.6,135.2,41.4,135.2,41.1z M137.9,38.7h3.3l-1.7-4.4L137.9,38.7z"/>
	<path class="st6" d="M145.2,43.9v-8.1c0-0.2,0.1-0.4,0.2-0.5c0.1-0.1,0.3-0.2,0.6-0.2c0.4,0,0.7,0.3,0.7,0.7v0.3
		c0.3-0.3,0.6-0.6,0.9-0.8c0.4-0.2,0.8-0.3,1.2-0.3c0.8,0,1.6,0.3,2.2,0.9c0.6,0.6,0.8,1.5,0.8,2.6c0,1.1-0.3,2-0.9,2.6
		c-0.5,0.6-1.3,1-2.2,1c-0.4,0-0.8-0.1-1.2-0.3c-0.4-0.2-0.7-0.5-1-0.8V44c0,0.2-0.1,0.4-0.2,0.5c-0.1,0.1-0.3,0.2-0.5,0.2
		c-0.2,0-0.4-0.1-0.5-0.2C145.3,44.3,145.2,44.1,145.2,43.9z M146.7,39.9c0.2,0.3,0.4,0.5,0.7,0.6s0.6,0.3,1,0.3
		c0.5,0,1-0.2,1.4-0.6c0.4-0.5,0.6-1,0.5-1.6c0-0.6-0.2-1.1-0.5-1.6c-0.3-0.4-0.9-0.6-1.4-0.6c-0.3,0-0.7,0.1-1,0.3
		c-0.3,0.1-0.6,0.4-0.7,0.6V39.9z"/>
	<path class="st6" d="M153.3,43.9v-8.1c0-0.2,0.1-0.4,0.2-0.5c0.1-0.1,0.3-0.2,0.6-0.2c0.4,0,0.7,0.3,0.7,0.7v0.3
		c0.3-0.3,0.6-0.6,0.9-0.8c0.4-0.2,0.8-0.3,1.2-0.3c0.8,0,1.6,0.3,2.2,0.9c0.6,0.6,0.8,1.5,0.8,2.6c0,1.1-0.3,2-0.8,2.6
		c-0.5,0.6-1.3,1-2.2,1c-0.4,0-0.8-0.1-1.2-0.3c-0.4-0.2-0.7-0.5-1-0.8V44c0,0.2-0.1,0.4-0.2,0.5c-0.1,0.1-0.3,0.2-0.5,0.2
		c-0.2,0-0.4-0.1-0.5-0.2C153.4,44.3,153.3,44.1,153.3,43.9z M154.8,39.9c0.2,0.3,0.4,0.5,0.7,0.6s0.6,0.3,1,0.3
		c0.5,0,1-0.2,1.4-0.6c0.4-0.5,0.6-1,0.5-1.6c0-0.6-0.2-1.1-0.5-1.6c-0.3-0.4-0.9-0.6-1.4-0.6c-0.3,0-0.7,0.1-1,0.3
		c-0.3,0.1-0.6,0.4-0.7,0.6V39.9z"/>
</g>
</svg>
